<?xml version="1.0" standalone="no"?><!DOCTYPE svg PUBLIC "-//W3C//DTD SVG 1.1//EN" "http://www.w3.org/Graphics/SVG/1.1/DTD/svg11.dtd"><svg t="1767537675571" class="icon" viewBox="0 0 1024 1024" version="1.1" xmlns="http://www.w3.org/2000/svg" p-id="9367" xmlns:xlink="http://www.w3.org/1999/xlink" width="200" height="200"><path d="M378.902489 215.782121c14.396738-31.880686 59.721889-31.880686 74.123746 0l78.869755 174.644926a203.197774 203.197774 0 0 0 101.499052 101.575848l174.619327 78.879994c31.880686 14.396738 31.880686 59.670691 0 74.06743l-174.619327 78.885114a203.146577 203.146577 0 0 0-101.499052 101.509291l-78.874875 174.706364c-14.401858 31.865327-59.716769 31.865327-74.118626 0l-78.874875-174.706364a203.146577 203.146577 0 0 0-101.499052-101.509291L23.909234 644.950319c-31.880686-14.396738-31.880686-59.670691 0-74.06743l174.619328-78.885114a203.202894 203.202894 0 0 0 101.499052-101.575848l78.874875-174.639806zM842.828672 13.633895c8.20696-18.175114 34.036101-18.175114 42.248181 0l14.934311 33.068468a154.590864 154.590864 0 0 0 77.185358 77.257034l33.124785 14.939432c18.169994 8.217199 18.175114 34.04634 0 42.2533l-33.124785 14.939432a154.534546 154.534546 0 0 0-77.185358 77.195596l-14.934311 33.124785c-8.217199 18.169994-34.036101 18.169994-42.248181 0l-14.939432-33.124785a154.514067 154.514067 0 0 0-77.185357-77.195596l-33.124785-14.939432c-18.169994-8.21208-18.169994-34.036101 0-42.2533l33.124785-14.939432a154.590864 154.590864 0 0 0 77.185357-77.257034l14.939432-33.068468z" p-id="9368"></path></svg>